<?xml version="1.0" encoding="iso-8859-1"?>
<svg version="1.1" id="Layer_1" xmlns="http://www.w3.org/2000/svg" xmlns:xlink="http://www.w3.org/1999/xlink" x="0px" y="0px"
	 viewBox="0 0 64 64" style="enable-background:new 0 0 64 64;" xml:space="preserve">
  
  <!-- Define the glow filter -->
  <defs>
    <filter id="glow" x="-50%" y="-50%" width="200%" height="200%">
      <feGaussianBlur stdDeviation="3" result="coloredBlur" />
      <feMerge>
        <feMergeNode in="coloredBlur"/>
        <feMergeNode in="SourceGraphic"/>
      </feMerge>
    </filter>
  </defs>

  <!-- Apply the glow filter to the circles and ellipses -->
  <circle style="fill:none;stroke:#61DAFB;strokeWidth:2;stroke-miterlimit:10; filter:url(#glow);" cx="32" cy="32" r="6"/>
  <ellipse style="fill:none;stroke:#61DAFB;strokeWidth:2;stroke-miterlimit:10; filter:url(#glow);" cx="32" cy="32" rx="29" ry="12"/>
  <ellipse transform="matrix(0.5 -0.866 0.866 0.5 -11.7128 43.7128)" style="fill:none;stroke:#61DAFB;strokeWidth:2;stroke-miterlimit:10; filter:url(#glow);" cx="32" cy="32" rx="29" ry="12"/>
  <ellipse transform="matrix(0.866 -0.5 0.5 0.866 -11.7128 20.2872)" style="fill:none;stroke:#61DAFB;strokeWidth:2;stroke-miterlimit:10; filter:url(#glow);" cx="32" cy="32" rx="12" ry="29"/>

  <!-- Keep other SVG elements without the glow if needed -->
  <g>
    <g>
      <path style="fill:#61DAFB;" d="M10.463,45.972c-0.044,0-0.088-0.003-0.133-0.009l-1.982-0.264c-0.548-0.073-0.933-0.575-0.859-1.123
        c0.072-0.548,0.572-0.933,1.123-0.859l1.982,0.264c0.548,0.073,0.933,0.575,0.859,1.123
        C11.387,45.606,10.957,45.972,10.463,45.972z"/>
    </g>
  </g>
  <g>
    <g>
      <path style="fill:#61DAFB;" d="M8.194,50.885c-0.536,0-0.98-0.426-0.998-0.967c-0.019-0.552,0.413-1.014,0.966-1.032l1.998-0.067
        c0.551-0.037,1.015,0.413,1.033,0.966c0.019,0.552-0.413,1.014-0.966,1.032l-1.999,0.067C8.218,50.885,8.206,50.885,8.194,50.885z
        "/>
    </g>
  </g>
  <!-- (Remaining SVG elements can be modified similarly if needed) -->
</svg>