<svg width="1880" height="1727" viewBox="0 0 1880 1727" fill="none" xmlns="http://www.w3.org/2000/svg">
<path d="M-368 1727H412.959C631.024 1560.29 669.173 1337.55 670.067 1337.45C716.66 1133.09 861.308 955.15 1072.22 875.67C1286.31 794.998 1428.38 838.016 1604.71 771.452C1919.98 652.721 2125.93 490.887 2162.97 178C2175.3 73.8179 2168.9 176.193 2141.58 70L528.002 0C520.253 94.3824 408.191 46.5449 198.273 19.025C-104.733 -20.715 -119.635 1.58862 -271.932 220.159C-301.339 259.899 -333.725 293.678 -368 322.39V1727Z" fill="url(#paint0_linear_28_4046)"/>
<defs>
<linearGradient id="paint0_linear_28_4046" x1="288.446" y1="1607" x2="1982.01" y2="-846.454" gradientUnits="userSpaceOnUse">
<stop stop-color="white"/>
<stop offset="1" stop-color="#F3C5BB" stop-opacity="0.4"/>
</linearGradient>
</defs>
</svg>
